<?xml version="1.0" encoding="utf-8"?>
<!-- Generator: Adobe Illustrator 18.0.0, SVG Export Plug-In . SVG Version: 6.00 Build 0)  -->
<!DOCTYPE svg PUBLIC "-//W3C//DTD SVG 1.1//EN" "http://www.w3.org/Graphics/SVG/1.1/DTD/svg11.dtd">
<svg version="1.1" id="Layer_1" xmlns="http://www.w3.org/2000/svg" xmlns:xlink="http://www.w3.org/1999/xlink" x="0px" y="0px"
	 viewBox="0 0 36 36" enable-background="new 0 0 36 36" xml:space="preserve">
<g>
	<path d="M18,3.8c7.3,0,13.2,5.9,13.2,13.2S25.3,30.2,18,30.2S4.8,24.3,4.8,17S10.7,3.8,18,3.8 M18,0C8.7,0,1,7.7,1,17s7.7,17,17,17
		s17-7.6,17-17S27.4,0,18,0L18,0z"/>
</g>
<g>
	<path d="M6.3,35.5c-0.4,0-0.8-0.2-1-0.6c-0.2-0.4-0.2-0.8,0-1.2l5.6-9.8l5.6-9.7c0.2-0.4,0.6-0.6,1-0.6s0.8,0.2,1,0.6l5.6,9.7
		l5.6,9.8c0.2,0.4,0.2,0.8,0,1.2s-0.6,0.6-1,0.6H6.3z"/>
	<path d="M17.6,14.2c0.1,0,0.4,0,0.6,0.3l5.6,9.7l5.6,9.8c0.2,0.3,0.1,0.6,0,0.7c-0.1,0.1-0.2,0.3-0.6,0.3H17.6H6.3
		c-0.4,0-0.5-0.2-0.6-0.3c-0.1-0.1-0.2-0.4,0-0.7l5.6-9.8l5.6-9.7C17.2,14.2,17.5,14.2,17.6,14.2 M17.6,13.2c-0.6,0-1.1,0.3-1.5,0.8
		l-5.6,9.7l-5.6,9.8C4.2,34.6,5,36,6.3,36h11.3h11.2c1.3,0,2.1-1.4,1.5-2.5l-5.6-9.8L19.1,14C18.7,13.5,18.2,13.2,17.6,13.2
		L17.6,13.2z"/>
</g>
</svg>
